<?xml version="1.0" encoding="UTF-8" standalone="no"?>
<svg width="300px" height="93px" viewBox="0 0 300 93" version="1.1" xmlns="http://www.w3.org/2000/svg" xmlns:xlink="http://www.w3.org/1999/xlink" xmlns:sketch="http://www.bohemiancoding.com/sketch/ns">
    <!-- Generator: Sketch 3.2.2 (9983) - http://www.bohemiancoding.com/sketch -->
    <title>beatspring_logo</title>
    <desc>Created with Sketch.</desc>
    <defs></defs>
    <g id="Page-1" stroke="none" stroke-width="1" fill="none" fill-rule="evenodd" sketch:type="MSPage">
        <g id="Desktop-HD-2" sketch:type="MSArtboardGroup" transform="translate(-568.000000, -66.000000)">
            <g id="beatspring_logo" sketch:type="MSLayerGroup" transform="translate(569.000000, 67.000000)">
                <path d="M6.33050686,36.1755958 C3.54550686,36.1755958 0.330506863,35.1755958 0.330506863,30.5675958 C0.330506863,26.1755958 3.54550686,25.1755958 6.33050686,25.1755958" id="Stroke-402" stroke="#FFFFFF" stroke-width="2" stroke-linecap="round" stroke-linejoin="round" sketch:type="MSShapeGroup"></path>
                <path d="M14.3305069,43.1755958 L10.4175069,43.1755958 C7.33050686,43.1755958 6.33050686,41.1755958 6.33050686,38.1325958 L6.33050686,23.0015958 C6.33050686,20.1755958 7.54550686,17.1755958 10.3305069,17.1755958 L14.3305069,17.1755958 L14.3305069,43.1755958 L14.3305069,43.1755958 Z" id="Stroke-403" stroke="#FFFFFF" stroke-width="2" stroke-linecap="round" stroke-linejoin="round" sketch:type="MSShapeGroup"></path>
                <path d="M52.3305069,35.1755958 C55.1155069,35.1755958 58.3305069,34.1755958 58.3305069,30.1755958 C58.3305069,26.1755958 55.1155069,25.1755958 52.3305069,25.1755958" id="Stroke-404" stroke="#FFFFFF" stroke-width="2" stroke-linecap="round" stroke-linejoin="round" sketch:type="MSShapeGroup"></path>
                <path d="M44.3305069,43.1755958 L48.2435069,43.1755958 C51.3305069,43.1755958 52.3305069,41.1755958 52.3305069,38.1325958 L52.3305069,23.0015958 C52.3305069,20.1755958 50.3305069,17.1755958 47.3305069,17.1755958 L44.3305069,17.1755958 L44.3305069,43.1755958 L44.3305069,43.1755958 Z" id="Stroke-405" stroke="#FFFFFF" stroke-width="2" stroke-linecap="round" stroke-linejoin="round" sketch:type="MSShapeGroup"></path>
                <path d="M11.3305069,17.0445958 C11.3305069,7.29559584 19.2325069,0.175595839 28.9825069,0.175595839 C38.7305069,0.175595839 46.6355069,7.29559584 46.6355069,17.0445958" id="Stroke-406" stroke="#FFFFFF" stroke-width="2" stroke-linejoin="round" sketch:type="MSShapeGroup"></path>
                <path d="M11.3305069,44.1755958 C11.3305069,44.1755958 7.33050686,71.8489452 37.3305077,71.8489452 C52.3305077,71.8489452 74.7735007,72.7742593 93.3320954,68.6983114 C111.89069,64.6223634 106.249525,59.6828862 106.249525,59.6828862 C105.590171,58.187223 105.695932,58.1661217 106.476299,59.6181719 L116.909865,79.0321725 C117.694463,80.4920949 119.093986,80.5662655 120.030517,79.2054953 L133.630495,59.4448487 C134.569385,58.0806499 135.829583,58.212487 136.451809,59.7556442 L148.101051,88.6464225 C149.332345,91.7001006 151.547944,91.7919246 153.042646,88.8653889 L167.964073,59.6501414 C168.718733,58.1725626 170.038651,58.1122435 170.915782,59.5211817 L183.214087,79.275986 C184.382953,81.1535387 186.235043,81.125771 187.345684,79.2228091 L198.816631,59.5686065 C199.652721,58.1360581 200.957523,58.1661214 201.727904,59.6298956 L211.006366,77.2595793 C212.289953,79.6984779 215.128164,80.3300295 217.327506,78.6837991 L227.588883,71.0030501 C237.939596,63.2554329 255.85586,61.3570484 267.602521,66.7612981 L278.661014,71.8489447" id="Path-112" stroke="#FFFFFF" stroke-width="2" stroke-linecap="round" sketch:type="MSShapeGroup"></path>
                <path d="M75.4104952,34.9404042 C75.4104952,35.4164042 75.8184952,35.8244042 76.2944952,35.8244042 L85.7464952,35.8244042 C90.8804952,35.8244042 94.2804952,33.3084042 94.2804952,29.3304042 L94.2804952,29.2624042 C94.2804952,25.9644042 91.7644952,24.3324042 88.9084952,23.5844042 C90.8464952,22.8024042 92.9544952,21.1704042 92.9544952,17.9404042 L92.9544952,17.8724042 C92.9544952,16.3764042 92.4104952,15.1184042 91.4244952,14.1324042 C90.0984952,12.8064042 87.9224952,12.0244042 85.2364952,12.0244042 L76.2944952,12.0244042 C75.8184952,12.0244042 75.4104952,12.4324042 75.4104952,12.9084042 L75.4104952,34.9404042 Z M77.1784952,23.0064042 L77.1784952,13.6564042 L85.2024952,13.6564042 C89.0104952,13.6564042 91.1524952,15.4244042 91.1524952,18.0424042 L91.1524952,18.1104042 C91.1524952,21.2724042 88.6024952,23.0064042 85.0324952,23.0064042 L77.1784952,23.0064042 Z M77.1784952,34.1924042 L77.1784952,24.6384042 L85.2364952,24.6384042 C89.9284952,24.6384042 92.4784952,26.3384042 92.4784952,29.2624042 L92.4784952,29.3304042 C92.4784952,32.3224042 89.8944952,34.1924042 85.8144952,34.1924042 L77.1784952,34.1924042 Z M101.346199,35.8244042 L116.884199,35.8244042 C117.326199,35.8244042 117.700199,35.4504042 117.700199,35.0084042 C117.700199,34.5664042 117.326199,34.1924042 116.884199,34.1924042 L102.230199,34.1924042 L102.230199,24.6384042 L115.184199,24.6384042 C115.626199,24.6384042 116.000199,24.2644042 116.000199,23.8224042 C116.000199,23.3804042 115.626199,23.0064042 115.184199,23.0064042 L102.230199,23.0064042 L102.230199,13.6564042 L116.714199,13.6564042 C117.156199,13.6564042 117.530199,13.2824042 117.530199,12.8404042 C117.530199,12.3984042 117.156199,12.0244042 116.714199,12.0244042 L101.346199,12.0244042 C100.870199,12.0244042 100.462199,12.4324042 100.462199,12.9084042 L100.462199,34.9404042 C100.462199,35.4164042 100.870199,35.8244042 101.346199,35.8244042 L101.346199,35.8244042 Z M122.113903,35.2124042 C122.113903,35.6204042 122.487903,35.9604042 122.929903,35.9604042 C123.337903,35.9604042 123.609903,35.7224042 123.779903,35.3144042 L126.567903,29.1604042 L140.609903,29.1604042 L143.397903,35.2804042 C143.567903,35.6544042 143.873903,35.9604042 144.281903,35.9604042 C144.757903,35.9604042 145.131903,35.5864042 145.131903,35.1444042 C145.131903,34.9744042 145.097903,34.8044042 144.995903,34.6004042 L134.863903,12.6364042 C134.625903,12.1264042 134.285903,11.7864042 133.673903,11.7864042 L133.605903,11.7864042 C132.993903,11.7864042 132.653903,12.1264042 132.415903,12.6364042 L122.249903,34.6684042 C122.147903,34.8724042 122.113903,35.0764042 122.113903,35.2124042 L122.113903,35.2124042 Z M127.315903,27.5624042 L133.605903,13.7924042 L139.861903,27.5624042 L127.315903,27.5624042 Z M154.645606,35.0764042 C154.645606,35.5524042 155.053606,35.9604042 155.529606,35.9604042 C156.005606,35.9604042 156.413606,35.5524042 156.413606,35.0764042 L156.413606,13.6564042 L164.029606,13.6564042 C164.471606,13.6564042 164.845606,13.2824042 164.845606,12.8404042 C164.845606,12.3984042 164.471606,12.0244042 164.029606,12.0244042 L147.029606,12.0244042 C146.587606,12.0244042 146.213606,12.3984042 146.213606,12.8404042 C146.213606,13.2824042 146.587606,13.6564042 147.029606,13.6564042 L154.645606,13.6564042 L154.645606,35.0764042 Z M178.13331,36.1644042 C182.72331,36.1644042 186.02131,33.5124042 186.02131,29.6704042 L186.02131,29.6024042 C186.02131,26.1344042 183.70931,24.1624042 178.20131,23.0404042 C172.55731,21.8844042 171.26531,20.3544042 171.26531,17.8384042 L171.26531,17.7704042 C171.26531,15.2884042 173.57731,13.2824042 177.07931,13.2824042 C179.49331,13.2824042 181.56731,13.9284042 183.64131,15.5264042 C183.81131,15.6624042 184.01531,15.7304042 184.21931,15.7304042 C184.69531,15.7304042 185.10331,15.3224042 185.10331,14.8464042 C185.10331,14.5064042 184.89931,14.2684042 184.72931,14.1324042 C182.55331,12.5004042 180.34331,11.6844042 177.14731,11.6844042 C172.72731,11.6844042 169.49731,14.4044042 169.49731,17.9404042 L169.49731,18.0084042 C169.49731,21.6124042 171.80931,23.5504042 177.52131,24.7064042 C182.92731,25.7944042 184.25331,27.2564042 184.25331,29.7724042 L184.25331,29.8404042 C184.25331,32.5604042 181.80531,34.5664042 178.23531,34.5664042 C174.97131,34.5664042 172.59131,33.6144042 170.21131,31.4724042 C170.07531,31.3704042 169.87131,31.2684042 169.63331,31.2684042 C169.15731,31.2684042 168.74931,31.6764042 168.74931,32.1524042 C168.74931,32.4584042 168.91931,32.6964042 169.08931,32.8324042 C171.77531,35.0424042 174.56331,36.1644042 178.13331,36.1644042 L178.13331,36.1644042 Z M192.339014,35.0764042 C192.339014,35.5524042 192.747014,35.9604042 193.223014,35.9604042 C193.699014,35.9604042 194.107014,35.5524042 194.107014,35.0764042 L194.107014,26.9504042 L200.533014,26.9504042 C205.497014,26.9504042 209.815014,24.3664042 209.815014,19.3684042 L209.815014,19.3004042 C209.815014,14.7104042 206.211014,12.0244042 200.975014,12.0244042 L193.223014,12.0244042 C192.747014,12.0244042 192.339014,12.4324042 192.339014,12.9084042 L192.339014,35.0764042 Z M194.107014,25.3184042 L194.107014,13.6564042 L200.839014,13.6564042 C205.123014,13.6564042 208.047014,15.6284042 208.047014,19.4024042 L208.047014,19.4704042 C208.047014,23.0064042 205.055014,25.3184042 200.635014,25.3184042 L194.107014,25.3184042 Z M215.554717,35.0764042 C215.554717,35.5524042 215.962717,35.9604042 216.438717,35.9604042 C216.914717,35.9604042 217.322717,35.5524042 217.322717,35.0764042 L217.322717,25.9644042 L225.108717,25.9644042 L232.418717,35.4844042 C232.622717,35.7564042 232.860717,35.9604042 233.200717,35.9604042 C233.676717,35.9604042 234.118717,35.5184042 234.118717,35.0424042 C234.118717,34.8384042 234.016717,34.6344042 233.846717,34.4304042 L227.080717,25.6584042 C231.092717,25.1144042 234.050717,22.8364042 234.050717,18.8584042 L234.050717,18.7904042 C234.050717,17.0904042 233.370717,15.4924042 232.248717,14.3704042 C230.820717,12.9424042 228.474717,12.0244042 225.550717,12.0244042 L216.438717,12.0244042 C215.962717,12.0244042 215.554717,12.4324042 215.554717,12.9084042 L215.554717,35.0764042 Z M217.322717,24.3664042 L217.322717,13.6564042 L225.448717,13.6564042 C229.766717,13.6564042 232.282717,15.6624042 232.282717,18.8584042 L232.282717,18.9264042 C232.282717,22.3604042 229.324717,24.3664042 225.346717,24.3664042 L217.322717,24.3664042 Z M240.878421,35.0764042 C240.878421,35.5524042 241.286421,35.9604042 241.762421,35.9604042 C242.238421,35.9604042 242.646421,35.5524042 242.646421,35.0764042 L242.646421,12.7724042 C242.646421,12.2964042 242.238421,11.8884042 241.762421,11.8884042 C241.286421,11.8884042 240.878421,12.2964042 240.878421,12.7724042 L240.878421,35.0764042 Z M250.460125,35.1104042 C250.460125,35.5864042 250.834125,35.9604042 251.310125,35.9604042 C251.786125,35.9604042 252.160125,35.5864042 252.160125,35.1104042 L252.160125,14.6084042 L268.514125,35.3484042 C268.786125,35.6884042 269.058125,35.9264042 269.398125,35.9264042 L269.534125,35.9264042 C269.942125,35.9264042 270.248125,35.5864042 270.248125,35.1784042 L270.248125,12.7384042 C270.248125,12.2624042 269.874125,11.8884042 269.398125,11.8884042 C268.922125,11.8884042 268.548125,12.2624042 268.548125,12.7384042 L268.548125,32.7984042 L252.500125,12.4324042 C252.262125,12.1264042 251.990125,11.9224042 251.616125,11.9224042 L251.344125,11.9224042 C250.868125,11.9224042 250.460125,12.3304042 250.460125,12.8064042 L250.460125,35.1104042 Z M288.737829,36.2324042 C292.273829,36.2324042 295.231829,34.9064042 297.475829,33.1724042 C297.849829,32.8664042 298.087829,32.4924042 298.087829,32.1524042 L298.087829,24.3664042 C298.087829,23.8904042 297.679829,23.4824042 297.203829,23.4824042 L288.975829,23.4824042 C288.533829,23.4824042 288.159829,23.8564042 288.159829,24.2984042 C288.159829,24.7404042 288.533829,25.1144042 288.975829,25.1144042 L296.387829,25.1144042 L296.387829,31.9484042 C294.653829,33.4104042 291.831829,34.6684042 288.805829,34.6684042 C282.447829,34.6684042 278.605829,30.0784042 278.605829,23.9244042 L278.605829,23.8564042 C278.605829,18.1104042 282.651829,13.2144042 288.431829,13.2144042 C291.729829,13.2144042 293.735829,14.2004042 295.571829,15.6284042 C295.775829,15.7984042 295.979829,15.8664042 296.115829,15.8664042 C296.591829,15.8664042 296.999829,15.4584042 296.999829,14.9824042 C296.999829,14.6764042 296.863829,14.4384042 296.659829,14.2684042 C294.449829,12.6024042 292.103829,11.6164042 288.533829,11.6164042 C281.427829,11.6164042 276.769829,17.4984042 276.769829,23.9244042 L276.769829,23.9924042 C276.769829,30.6904042 281.223829,36.2324042 288.737829,36.2324042 L288.737829,36.2324042 Z" id="BEATSPRING-3" fill="#FFFFFF" sketch:type="MSShapeGroup"></path>
            </g>
        </g>
    </g>
</svg>